<?xml version="1.0" standalone="no"?><!DOCTYPE svg PUBLIC "-//W3C//DTD SVG 1.1//EN" "http://www.w3.org/Graphics/SVG/1.1/DTD/svg11.dtd"><svg height="1024" node-id="1" sillyvg="true" template-height="1024" template-width="1024" version="1.1" viewBox="0 0 1024 1024" width="1024" xmlns="http://www.w3.org/2000/svg" xmlns:xlink="http://www.w3.org/1999/xlink"><defs node-id="83"><linearGradient gradientUnits="userSpaceOnUse" id="paint0_linear_2467_4906" node-id="28" spreadMethod="pad" x1="93.2299" x2="709.402" y1="602.029" y2="913.904"><stop offset="0" stop-color="#ffffff"></stop><stop offset="1" stop-color="#f3f4f5"></stop></linearGradient><linearGradient gradientUnits="userSpaceOnUse" id="paint1_linear_2467_4906" node-id="31" spreadMethod="pad" x1="928.3" x2="343.167" y1="381.648" y2="148.21"><stop offset="0" stop-color="#ffffff"></stop><stop offset="1" stop-color="#f3f4f5"></stop></linearGradient><linearGradient gradientUnits="userSpaceOnUse" id="paint2_linear_2467_4906" node-id="34" spreadMethod="pad" x1="537.117" x2="147.626" y1="789.891" y2="862.246"><stop offset="0" stop-color="#dee3eb"></stop><stop offset="1" stop-color="#f9f9f9"></stop></linearGradient><linearGradient gradientUnits="userSpaceOnUse" id="paint3_linear_2467_4906" node-id="37" spreadMethod="pad" x1="735.552" x2="629.217" y1="803.154" y2="875.638"><stop offset="0" stop-color="#dee3eb"></stop><stop offset="1" stop-color="#f9f9f9"></stop></linearGradient><linearGradient gradientUnits="userSpaceOnUse" id="paint4_linear_2467_4906" node-id="40" spreadMethod="pad" x1="773.337" x2="701.025" y1="742.27" y2="781.837"><stop offset="0" stop-color="#e0e4e9"></stop><stop offset="1" stop-color="#a4afbe"></stop></linearGradient><linearGradient gradientUnits="userSpaceOnUse" id="paint5_linear_2467_4906" node-id="43" spreadMethod="pad" x1="732.161" x2="351.131" y1="471.042" y2="694.462"><stop offset="0" stop-color="#f3f4f5"></stop><stop offset="1" stop-color="#8c96a4"></stop></linearGradient><linearGradient gradientUnits="userSpaceOnUse" id="paint6_linear_2467_4906" node-id="46" spreadMethod="pad" x1="506.814" x2="861.519" y1="556.085" y2="343.395"><stop offset="0" stop-color="#d7dbe1"></stop><stop offset="1" stop-color="#f3f4f5"></stop></linearGradient><linearGradient gradientUnits="userSpaceOnUse" id="paint7_linear_2467_4906" node-id="49" spreadMethod="pad" x1="226.758" x2="500.62" y1="639.066" y2="465.644"><stop offset="0" stop-color="#a4afbe"></stop><stop offset="0.983562" stop-color="#d7dbe1"></stop></linearGradient><linearGradient gradientUnits="userSpaceOnUse" id="paint8_linear_2467_4906" node-id="52" spreadMethod="pad" x1="375.872" x2="594.62" y1="738.605" y2="754.753"><stop offset="0" stop-color="#d7dbe1"></stop><stop offset="1" stop-color="#e0e4e9"></stop></linearGradient><linearGradient gradientUnits="userSpaceOnUse" id="paint9_linear_2467_4906" node-id="55" spreadMethod="pad" x1="361.599" x2="372.978" y1="646.847" y2="565.658"><stop offset="0" stop-color="#a4afbe"></stop><stop offset="0.983562" stop-color="#d7dbe1"></stop></linearGradient><linearGradient gradientUnits="userSpaceOnUse" id="paint10_linear_2467_4906" node-id="58" spreadMethod="pad" x1="471.326" x2="541.484" y1="400" y2="644.673"><stop offset="0" stop-color="#e0e4e9" stop-opacity="0"></stop><stop offset="0.29753" stop-color="#c3cad3" stop-opacity="0"></stop><stop offset="1" stop-color="#d7dbe1" stop-opacity="0.5"></stop></linearGradient><linearGradient gradientUnits="userSpaceOnUse" id="paint11_linear_2467_4906" node-id="62" spreadMethod="pad" x1="219.608" x2="175.649" y1="464.616" y2="488.722"><stop offset="0" stop-color="#e0e4e9"></stop><stop offset="1" stop-color="#a4afbe"></stop></linearGradient><linearGradient gradientUnits="userSpaceOnUse" id="paint12_linear_2467_4906" node-id="65" spreadMethod="pad" x1="756.263" x2="724.864" y1="309.699" y2="326.917"><stop offset="0" stop-color="#e0e4e9"></stop><stop offset="1" stop-color="#a4afbe"></stop></linearGradient><linearGradient gradientUnits="userSpaceOnUse" id="paint13_linear_2467_4906" node-id="68" spreadMethod="pad" x1="849.503" x2="828.571" y1="587.172" y2="598.651"><stop offset="0" stop-color="#e0e4e9"></stop><stop offset="1" stop-color="#a4afbe"></stop></linearGradient><linearGradient gradientUnits="userSpaceOnUse" id="paint14_linear_2467_4906" node-id="71" spreadMethod="pad" x1="446.204" x2="368.783" y1="373.608" y2="435.555"><stop offset="0" stop-color="#8c96a4"></stop><stop offset="1" stop-color="#9fa8b4" stop-opacity="0"></stop></linearGradient><linearGradient gradientUnits="userSpaceOnUse" id="paint15_linear_2467_4906" node-id="74" spreadMethod="pad" x1="448.052" x2="429.864" y1="360.522" y2="307.779"><stop offset="0" stop-color="#a4afbe"></stop><stop offset="1" stop-color="#8c96a4"></stop></linearGradient><linearGradient gradientUnits="userSpaceOnUse" id="paint16_linear_2467_4906" node-id="77" spreadMethod="pad" x1="486.639" x2="352.154" y1="230.129" y2="302.559"><stop offset="0" stop-color="#c9d0db"></stop><stop offset="1" stop-color="#8c96a4"></stop></linearGradient><clipPath id="clip0_2467_4906" node-id="80"><path d="M 0.00 0.00 L 1024.00 0.00 L 1024.00 1024.00 L 0.00 1024.00 Z" fill="#000000" fill-rule="nonzero" node-id="190" stroke="none" target-height="1024" target-width="1024" target-x="0" target-y="0"></path></clipPath><mask height="840" id="mask0_2467_4906" maskUnits="userSpaceOnUse" node-id="3" width="840" x="92" y="92"><path d="M 512.00 931.84 C 743.87 931.84 931.84 743.87 931.84 512.00 C 931.84 280.13 743.87 92.16 512.00 92.16 C 280.13 92.16 92.16 280.13 92.16 512.00 C 92.16 743.87 280.13 931.84 512.00 931.84 Z" fill="#ffffff" fill-rule="nonzero" node-id="194" stroke="none" target-height="839.6798" target-width="839.68005" target-x="92.16" target-y="92.1602"></path></mask><mask height="440" id="mask1_2467_4906" maskUnits="userSpaceOnUse" node-id="12" width="442" x="293" y="336"><path d="M 513.86 775.81 C 635.51 775.81 734.13 677.40 734.13 556.01 C 734.13 434.63 635.51 336.23 513.86 336.23 C 392.21 336.23 293.59 434.63 293.59 556.01 C 293.59 677.40 392.21 775.81 513.86 775.81 Z" fill="#ffffff" fill-rule="nonzero" node-id="198" stroke="none" target-height="439.58102" target-width="440.541" target-x="293.59" target-y="336.225"></path></mask></defs><g node-id="263"><g clip-path="url(#clip0_2467_4906)" group-id="1" id="sillyvg_g_1" node-id="204"><path d="M 512.00 931.84 C 743.87 931.84 931.84 743.87 931.84 512.00 C 931.84 280.13 743.87 92.16 512.00 92.16 C 280.13 92.16 92.16 280.13 92.16 512.00 C 92.16 743.87 280.13 931.84 512.00 931.84 Z" fill="#d8d8d8" fill-rule="nonzero" group-id="1" node-id="206" stroke="none" target-height="839.6798" target-width="839.68005" target-x="92.16" target-y="92.1602"></path><path d="M -46.14 564.85 L 1067.67 564.85 L 1067.67 1670.26 L -46.14 1670.26 L -46.14 564.85 Z" fill="url(#paint0_linear_2467_4906)" fill-rule="nonzero" group-id="1" node-id="208" stroke="none" target-height="1105.411" target-width="1113.8102" target-x="-46.1401" target-y="564.849"></path><path d="M 1067.67 564.85 L -46.14 564.85 L -46.14 -306.44 L 1067.67 -306.44 L 1067.67 564.85 Z" fill="url(#paint1_linear_2467_4906)" fill-rule="nonzero" group-id="1" node-id="210" stroke="none" target-height="871.292" target-width="1113.8109" target-x="-46.1409" target-y="-306.443"></path><path d="M 635.91 739.44 L 107.49 1025.98 L -98.00 842.55 L 537.60 601.60 L 635.91 739.44 Z" fill="url(#paint2_linear_2467_4906)" fill-opacity="0.579767" fill-rule="evenodd" group-id="1,2" node-id="214" stroke="none" target-height="424.38098" target-width="733.9085" target-x="-98.0025" target-y="601.599"></path><path d="M 756.50 796.72 L 644.47 862.69 L 600.91 836.01 L 729.04 756.49 L 756.50 796.72 Z" fill="url(#paint3_linear_2467_4906)" fill-opacity="0.579767" fill-rule="nonzero" group-id="1,3" node-id="219" stroke="none" target-height="106.19501" target-width="155.58801" target-x="600.907" target-y="756.494"></path><path d="M 731.80 803.42 C 757.71 803.42 778.72 782.41 778.72 756.50 C 778.72 730.58 757.71 709.57 731.80 709.57 C 705.88 709.57 684.88 730.58 684.88 756.50 C 684.88 782.41 705.88 803.42 731.80 803.42 Z" fill="url(#paint4_linear_2467_4906)" fill-rule="nonzero" group-id="1" node-id="222" stroke="none" target-height="93.847046" target-width="93.846985" target-x="684.875" target-y="709.574"></path><path d="M 513.86 775.81 C 635.51 775.81 734.13 677.40 734.13 556.01 C 734.13 434.63 635.51 336.23 513.86 336.23 C 392.21 336.23 293.59 434.63 293.59 556.01 C 293.59 677.40 392.21 775.81 513.86 775.81 Z" fill="url(#paint5_linear_2467_4906)" fill-rule="nonzero" group-id="1,4" node-id="226" stroke="none" target-height="439.58102" target-width="440.54" target-x="293.59" target-y="336.225"></path><path d="M 612.74 400.04 C 619.16 392.75 631.10 375.24 648.53 347.48 C 674.68 305.85 756.18 389.15 762.73 443.16 C 769.29 497.17 744.69 577.34 674.68 562.92 C 604.67 548.51 619.79 577.81 592.37 577.81 C 564.96 577.81 506.29 567.64 506.29 492.28 C 506.29 416.92 542.19 454.03 553.64 422.54 C 561.27 401.54 580.97 394.04 612.74 400.04 Z" fill="url(#paint6_linear_2467_4906)" fill-opacity="0.5" fill-rule="evenodd" group-id="1,4,5" node-id="230" stroke="none" target-height="271.95404" target-width="262.999" target-x="506.29" target-y="305.852"></path><path d="M 308.26 461.51 C 330.93 450.04 349.05 450.04 362.62 461.51 C 382.97 478.72 460.96 444.30 473.32 461.51 C 485.68 478.72 455.46 514.13 430.11 514.13 C 404.77 514.13 362.62 544.07 362.62 571.74 C 362.62 599.40 362.62 679.85 281.36 647.12 C 227.19 625.31 236.16 563.44 308.26 461.51 Z" fill="url(#paint7_linear_2467_4906)" fill-opacity="0.5" fill-rule="evenodd" group-id="1,4,6" node-id="235" stroke="none" target-height="235.54602" target-width="258.495" target-x="227.189" target-y="444.3"></path><path d="M 375.87 743.00 C 412.93 694.56 448.47 676.35 482.50 688.37 C 533.54 706.39 516.02 739.83 565.84 729.51 C 615.66 719.19 630.55 761.75 593.18 777.45 C 568.26 787.91 521.24 794.08 452.13 795.94 L 375.87 743.00 Z" fill="url(#paint8_linear_2467_4906)" fill-opacity="0.4" fill-rule="evenodd" group-id="1,4,7" node-id="240" stroke="none" target-height="119.58801" target-width="254.68" target-x="375.872" target-y="676.351"></path><path d="M 380.80 644.91 C 402.53 619.72 412.70 601.36 411.32 589.85 C 409.25 572.59 389.35 584.20 383.63 594.52 C 377.91 604.84 386.77 616.75 380.10 628.79 C 375.65 636.81 375.89 642.18 380.80 644.91 Z" fill="url(#paint9_linear_2467_4906)" fill-opacity="0.6" fill-rule="evenodd" group-id="1,4,8" node-id="245" stroke="none" target-height="72.31995" target-width="37.04901" target-x="375.651" target-y="572.59"></path><path d="M 482.12 437.64 C 665.02 385.19 826.59 389.02 842.98 446.19 C 859.37 503.36 724.39 592.23 541.48 644.67 C 358.58 697.12 197.02 693.29 180.62 636.12 C 164.23 578.95 299.21 490.09 482.12 437.64 Z M 491.08 468.90 C 351.33 508.97 247.32 573.80 258.77 613.71 C 270.21 653.62 392.78 653.49 532.52 613.42 C 672.27 573.35 776.28 508.51 764.84 468.60 C 753.39 428.69 630.83 428.82 491.08 468.90 Z" fill="url(#paint10_linear_2467_4906)" fill-rule="evenodd" group-id="1" node-id="249" stroke="none" target-height="311.926" target-width="695.139" target-x="164.232" target-y="385.194"></path><path d="M 194.33 501.75 C 210.10 501.75 222.88 488.99 222.88 473.25 C 222.88 457.52 210.10 444.76 194.33 444.76 C 178.56 444.76 165.78 457.52 165.78 473.25 C 165.78 488.99 178.56 501.75 194.33 501.75 Z" fill="url(#paint11_linear_2467_4906)" fill-rule="nonzero" group-id="1" node-id="251" stroke="none" target-height="56.981995" target-width="57.108" target-x="165.777" target-y="444.764"></path><path d="M 738.21 336.22 C 749.47 336.22 758.60 327.11 758.60 315.87 C 758.60 304.63 749.47 295.52 738.21 295.52 C 726.94 295.52 717.81 304.63 717.81 315.87 C 717.81 327.11 726.94 336.22 738.21 336.22 Z" fill="url(#paint12_linear_2467_4906)" fill-rule="nonzero" group-id="1" node-id="253" stroke="none" target-height="40.701996" target-width="40.791016" target-x="717.812" target-y="295.519"></path><path d="M 837.47 604.85 C 844.98 604.85 851.06 598.78 851.06 591.29 C 851.06 583.79 844.98 577.72 837.47 577.72 C 829.96 577.72 823.87 583.79 823.87 591.29 C 823.87 598.78 829.96 604.85 837.47 604.85 Z" fill="url(#paint13_linear_2467_4906)" fill-rule="nonzero" group-id="1" node-id="255" stroke="none" target-height="27.134033" target-width="27.19403" target-x="823.87" target-y="577.719"></path><path d="M 446.20 360.64 C 405.80 376.54 375.78 400.56 356.13 432.71" fill="none" group-id="1" node-id="257" stroke="url(#paint14_linear_2467_4906)" stroke-linecap="round" stroke-width="10.2828" target-height="72.06799" target-width="90.069" target-x="356.135" target-y="360.644"></path><path d="M 432.64 306.26 C 435.51 305.44 438.50 307.09 439.33 309.96 C 439.33 309.98 439.33 309.99 439.33 310.00 L 452.38 356.59 C 453.20 359.49 451.52 362.50 448.62 363.33 C 445.75 364.15 442.76 362.49 441.94 359.62 C 441.94 359.61 441.93 359.60 441.93 359.59 L 428.88 312.99 C 428.07 310.10 429.75 307.09 432.64 306.26 Z" fill="url(#paint15_linear_2467_4906)" fill-rule="evenodd" group-id="1" node-id="259" stroke="none" target-height="58.71399" target-width="25.130005" target-x="428.067" target-y="305.435"></path><path d="M 428.28 290.21 C 436.94 287.73 445.97 292.72 448.45 301.36 C 450.93 310.01 445.92 319.03 437.25 321.51 C 428.59 323.99 419.56 319.00 417.08 310.36 C 414.60 301.71 419.62 292.69 428.28 290.21 Z M 420.07 260.36 C 434.34 256.27 449.34 257.88 462.24 264.60 C 466.23 266.68 467.77 271.60 465.68 275.59 C 463.60 279.57 458.67 281.12 454.67 279.04 C 445.45 274.24 434.76 273.08 424.56 276.01 C 414.36 278.93 405.92 285.56 400.64 294.50 C 398.35 298.38 393.35 299.67 389.47 297.40 C 385.59 295.12 384.30 290.13 386.58 286.25 C 393.96 273.75 405.81 264.45 420.07 260.36 Z M 411.86 230.51 C 433.50 224.30 456.26 226.99 475.61 237.57 C 479.56 239.73 481.00 244.68 478.83 248.62 C 476.66 252.57 471.70 254.01 467.76 251.85 C 452.14 243.32 433.81 241.15 416.35 246.16 C 399.24 251.06 385.08 262.24 376.31 277.29 C 374.04 281.18 369.05 282.50 365.15 280.24 C 361.26 277.98 359.94 273.00 362.21 269.11 C 373.08 250.46 390.66 236.59 411.86 230.51 Z M 403.65 200.66 C 432.29 192.44 462.39 196.01 487.98 210.01 C 491.93 212.17 493.37 217.12 491.20 221.06 C 489.04 225.01 484.08 226.45 480.13 224.29 C 458.27 212.33 432.60 209.29 408.13 216.31 C 383.93 223.25 363.93 239.16 351.69 260.56 C 349.45 264.47 344.47 265.83 340.56 263.61 C 336.65 261.38 335.29 256.41 337.53 252.50 C 351.86 227.45 375.31 208.78 403.65 200.66 Z" fill="url(#paint16_linear_2467_4906)" fill-rule="evenodd" group-id="1" node-id="261" stroke="none" target-height="131.54898" target-width="158.082" target-x="335.291" target-y="192.445"></path></g></g></svg>